# xmcd
#
# Track frame offsets:
#  150
#  20517
#  43027
#  61065
#  94000
#  113950
#  134925
#  156742
#  177297
#  198925
#
# Disc length: 3003 seconds
#
# Revision: 0
# Processed by: cddbd v1.5.1PL2 Copyright (c) Steve Scherf et al.
# Submitted via: Collectorz.com_Music_Collector 6.9
#
DISCID=8f0bb90a
DTITLE=Ollie Nightengale - Tell Me What You Want Me To Do
DYEAR=1996
DGENRE=Blues - Soul - Soul-Blues
TTITLE0=Tell Me What You Want Me To Do
TTITLE1=You've Got A Booger Bear Under There
TTITLE2=I Got A Sure Thing
TTITLE3=If You're Lucky Enough To Have A Good Woman
TTITLE4=Down At The Place To Be
TTITLE5=The Best That You Can Get
TTITLE6=I'm Your Sure Thing Man
TTITLE7=If You Need Somebody To Love You
TTITLE8=Something You Like
TTITLE9=It's A Cold World
EXTD=
EXTT0=
EXTT1=
EXTT2=
EXTT3=
EXTT4=
EXTT5=
EXTT6=
EXTT7=
EXTT8=
EXTT9=
PLAYORDER=
